<?plantuml 1.2026.2beta2?><svg xmlns="http://www.w3.org/2000/svg" xmlns:xlink="http://www.w3.org/1999/xlink" contentStyleType="text/css" data-diagram-type="CLASS" height="366px" preserveAspectRatio="none" style="width:1855px;height:366px;background:#FFFFFF;" version="1.1" viewBox="0 0 1855 366" width="1855px" zoomAndPan="magnify"><defs/><g><!--class Maksutapa--><g class="entity" data-qualified-name="Maksutapa" data-source-line="2" id="ent0002"><rect fill="#F1F1F1" height="113.1875" rx="2.5" ry="2.5" style="stroke:#181818;stroke-width:0.5;" width="380.9014" x="852.74" y="7"/><ellipse cx="1000.7073" cy="23" fill="#A9DCDF" rx="11" ry="11" style="stroke:#181818;stroke-width:1;"/><path d="M1000.8167,18.3438 L999.6604,23.4219 L1001.9885,23.4219 L1000.8167,18.3438 Z M999.3323,16.1094 L1002.3167,16.1094 L1005.676,28.5 L1003.2229,28.5 L1002.4573,25.4375 L999.176,25.4375 L998.426,28.5 L995.9885,28.5 L999.3323,16.1094 Z " fill="#000000"/><text fill="#000000" font-family="sans-serif" font-size="14" font-style="italic" lengthAdjust="spacing" textLength="76.4668" x="1021.2073" y="27.8467">Maksutapa</text><line style="stroke:#181818;stroke-width:0.5;" x1="853.74" x2="1232.6414" y1="39" y2="39"/><g data-visibility-modifier="PRIVATE_FIELD"><rect fill="none" height="6" style="stroke:#C82930;stroke-width:1;" width="6" x="860.74" y="49.6484"/></g><text fill="#000000" font-family="sans-serif" font-size="14" lengthAdjust="spacing" textLength="85.6885" x="872.74" y="55.9951">nimi : String</text><line style="stroke:#181818;stroke-width:0.5;" x1="853.74" x2="1232.6414" y1="63.2969" y2="63.2969"/><g data-visibility-modifier="PUBLIC_METHOD"><ellipse cx="863.74" cy="76.9453" fill="#84BE84" rx="3" ry="3" style="stroke:#038048;stroke-width:1;"/></g><text fill="#000000" font-family="sans-serif" font-size="14" lengthAdjust="spacing" textLength="121.2012" x="872.74" y="80.292">getNimi() : String</text><g data-visibility-modifier="PUBLIC_METHOD"><ellipse cx="863.74" cy="93.2422" fill="#84BE84" rx="3" ry="3" style="stroke:#038048;stroke-width:1;"/></g><text fill="#000000" font-family="sans-serif" font-size="14" lengthAdjust="spacing" textLength="307.7197" x="872.74" y="96.5889">maksa(pyynto : MaksuPyynto) : MaksuTulos</text><g data-visibility-modifier="PROTECTED_METHOD"><polygon fill="#FFFF44" points="863.74,104.5391,867.74,108.5391,863.74,112.5391,859.74,108.5391" style="stroke:#B38D22;stroke-width:1;"/></g><text fill="#000000" font-family="sans-serif" font-size="14" lengthAdjust="spacing" textLength="354.9014" x="872.74" y="112.8857">suoritaMaksu(pyynto : MaksuPyynto) : MaksuTulos</text></g><!--class Korttimaksu--><g class="entity" data-qualified-name="Korttimaksu" data-source-line="9" id="ent0003"><rect fill="#F1F1F1" height="113.1875" rx="2.5" ry="2.5" style="stroke:#181818;stroke-width:0.5;" width="481.5469" x="540.42" y="221.64"/><ellipse cx="734.5128" cy="237.64" fill="#ADD1B2" rx="11" ry="11" style="stroke:#181818;stroke-width:1;"/><path d="M737.4815,243.2806 Q736.9034,243.5775 736.2628,243.7181 Q735.6221,243.8744 734.919,243.8744 Q732.419,243.8744 731.0909,242.2338 Q729.7784,240.5775 729.7784,237.4525 Q729.7784,234.3275 731.0909,232.6713 Q732.419,231.015 734.919,231.015 Q735.6221,231.015 736.2628,231.1713 Q736.919,231.3275 737.4815,231.6244 L737.4815,234.3431 Q736.8565,233.765 736.2628,233.4994 Q735.669,233.2181 735.044,233.2181 Q733.7003,233.2181 733.0128,234.2963 Q732.3253,235.3588 732.3253,237.4525 Q732.3253,239.5463 733.0128,240.6244 Q733.7003,241.6869 735.044,241.6869 Q735.669,241.6869 736.2628,241.4213 Q736.8565,241.14 737.4815,240.5619 L737.4815,243.2806 Z " fill="#000000"/><text fill="#000000" font-family="sans-serif" font-size="14" lengthAdjust="spacing" textLength="84.8613" x="755.0128" y="242.4867">Korttimaksu</text><line style="stroke:#181818;stroke-width:0.5;" x1="541.42" x2="1020.9669" y1="253.64" y2="253.64"/><g data-visibility-modifier="PRIVATE_FIELD"><rect fill="none" height="6" style="stroke:#C82930;stroke-width:1;" width="6" x="548.42" y="264.2884"/></g><text fill="#000000" font-family="sans-serif" font-size="14" lengthAdjust="spacing" textLength="177.3311" x="560.42" y="270.6351">katevarausSentteina : int</text><line style="stroke:#181818;stroke-width:0.5;" x1="541.42" x2="1020.9669" y1="277.9369" y2="277.9369"/><g data-visibility-modifier="PUBLIC_METHOD"><ellipse cx="551.42" cy="291.5853" fill="#84BE84" rx="3" ry="3" style="stroke:#038048;stroke-width:1;"/></g><text fill="#000000" font-family="sans-serif" font-size="14" lengthAdjust="spacing" textLength="95.7852" x="560.42" y="294.932">Korttimaksu()</text><g data-visibility-modifier="PROTECTED_METHOD"><polygon fill="#FFFF44" points="551.42,302.8822,555.42,306.8822,551.42,310.8822,547.42,306.8822" style="stroke:#B38D22;stroke-width:1;"/></g><text fill="#000000" font-family="sans-serif" font-size="14" lengthAdjust="spacing" textLength="354.9014" x="560.42" y="311.2289">suoritaMaksu(pyynto : MaksuPyynto) : MaksuTulos</text><g data-visibility-modifier="PUBLIC_METHOD"><ellipse cx="551.42" cy="324.1791" fill="#84BE84" rx="3" ry="3" style="stroke:#038048;stroke-width:1;"/></g><text fill="#000000" font-family="sans-serif" font-size="14" lengthAdjust="spacing" textLength="455.5469" x="560.42" y="327.5257">hyvita(tapahtumaId : String, summaSentteina : int) : MaksuTulos</text></g><!--class LahjakorttiMaksu--><g class="entity" data-qualified-name="LahjakorttiMaksu" data-source-line="16" id="ent0004"><rect fill="#F1F1F1" height="96.8906" rx="2.5" ry="2.5" style="stroke:#181818;stroke-width:0.5;" width="380.9014" x="1467.74" y="229.79"/><ellipse cx="1593.9656" cy="245.79" fill="#ADD1B2" rx="11" ry="11" style="stroke:#181818;stroke-width:1;"/><path d="M1596.9343,251.4306 Q1596.3562,251.7275 1595.7156,251.8681 Q1595.075,252.0244 1594.3718,252.0244 Q1591.8718,252.0244 1590.5437,250.3838 Q1589.2312,248.7275 1589.2312,245.6025 Q1589.2312,242.4775 1590.5437,240.8213 Q1591.8718,239.165 1594.3718,239.165 Q1595.075,239.165 1595.7156,239.3213 Q1596.3718,239.4775 1596.9343,239.7744 L1596.9343,242.4931 Q1596.3093,241.915 1595.7156,241.6494 Q1595.1218,241.3681 1594.4968,241.3681 Q1593.1531,241.3681 1592.4656,242.4463 Q1591.7781,243.5088 1591.7781,245.6025 Q1591.7781,247.6963 1592.4656,248.7744 Q1593.1531,249.8369 1594.4968,249.8369 Q1595.1218,249.8369 1595.7156,249.5713 Q1596.3093,249.29 1596.9343,248.7119 L1596.9343,251.4306 Z " fill="#000000"/><text fill="#000000" font-family="sans-serif" font-size="14" lengthAdjust="spacing" textLength="119.9502" x="1614.4656" y="250.6367">LahjakorttiMaksu</text><line style="stroke:#181818;stroke-width:0.5;" x1="1468.74" x2="1847.6414" y1="261.79" y2="261.79"/><g data-visibility-modifier="PRIVATE_FIELD"><rect fill="none" height="6" style="stroke:#C82930;stroke-width:1;" width="6" x="1475.74" y="272.4384"/></g><text fill="#000000" font-family="sans-serif" font-size="14" lengthAdjust="spacing" textLength="136.3906" x="1487.74" y="278.7851">saldoSentteina : int</text><line style="stroke:#181818;stroke-width:0.5;" x1="1468.74" x2="1847.6414" y1="286.0869" y2="286.0869"/><g data-visibility-modifier="PUBLIC_METHOD"><ellipse cx="1478.74" cy="299.7353" fill="#84BE84" rx="3" ry="3" style="stroke:#038048;stroke-width:1;"/></g><text fill="#000000" font-family="sans-serif" font-size="14" lengthAdjust="spacing" textLength="298.3066" x="1487.74" y="303.082">LahjakorttiMaksu(alkuSaldoSentteina : int)</text><g data-visibility-modifier="PROTECTED_METHOD"><polygon fill="#FFFF44" points="1478.74,311.0322,1482.74,315.0322,1478.74,319.0322,1474.74,315.0322" style="stroke:#B38D22;stroke-width:1;"/></g><text fill="#000000" font-family="sans-serif" font-size="14" lengthAdjust="spacing" textLength="354.9014" x="1487.74" y="319.3789">suoritaMaksu(pyynto : MaksuPyynto) : MaksuTulos</text></g><!--class Hyvitettava--><g class="entity" data-qualified-name="Hyvitettava" data-source-line="22" id="ent0005"><rect fill="#F1F1F1" height="64.2969" rx="2.5" ry="2.5" style="stroke:#181818;stroke-width:0.5;" width="481.5469" x="234.42" y="31.45"/><ellipse cx="430.1876" cy="47.45" fill="#B4A7E5" rx="11" ry="11" style="stroke:#181818;stroke-width:1;"/><path d="M426.1095,43.2156 L426.1095,41.0594 L433.5001,41.0594 L433.5001,43.2156 L431.0313,43.2156 L431.0313,51.2937 L433.5001,51.2937 L433.5001,53.45 L426.1095,53.45 L426.1095,51.2937 L428.5782,51.2937 L428.5782,43.2156 L426.1095,43.2156 Z " fill="#000000"/><text fill="#000000" font-family="sans-serif" font-size="14" font-style="italic" lengthAdjust="spacing" textLength="81.5117" x="450.6876" y="52.2967">Hyvitettava</text><line style="stroke:#181818;stroke-width:0.5;" x1="235.42" x2="714.9669" y1="63.45" y2="63.45"/><line style="stroke:#181818;stroke-width:0.5;" x1="235.42" x2="714.9669" y1="71.45" y2="71.45"/><g data-visibility-modifier="PUBLIC_METHOD"><ellipse cx="245.42" cy="85.0984" fill="#84BE84" rx="3" ry="3" style="stroke:#038048;stroke-width:1;"/></g><text fill="#000000" font-family="sans-serif" font-size="14" lengthAdjust="spacing" textLength="455.5469" x="254.42" y="88.4451">hyvita(tapahtumaId : String, summaSentteina : int) : MaksuTulos</text></g><!--class MaksuPyynto--><g class="entity" data-qualified-name="MaksuPyynto" data-source-line="26" id="ent0006"><rect fill="#F1F1F1" height="129.4844" rx="2.5" ry="2.5" style="stroke:#181818;stroke-width:0.5;" width="375.46" x="1057.46" y="213.49"/><ellipse cx="1194.5035" cy="229.49" fill="#ADD1B2" rx="11" ry="11" style="stroke:#181818;stroke-width:1;"/><path d="M1197.4722,235.1306 Q1196.8941,235.4275 1196.2535,235.5681 Q1195.6128,235.7244 1194.9097,235.7244 Q1192.4097,235.7244 1191.0816,234.0837 Q1189.7691,232.4275 1189.7691,229.3025 Q1189.7691,226.1775 1191.0816,224.5212 Q1192.4097,222.865 1194.9097,222.865 Q1195.6128,222.865 1196.2535,223.0212 Q1196.9097,223.1775 1197.4722,223.4744 L1197.4722,226.1931 Q1196.8472,225.615 1196.2535,225.3494 Q1195.6597,225.0681 1195.0347,225.0681 Q1193.691,225.0681 1193.0035,226.1462 Q1192.316,227.2087 1192.316,229.3025 Q1192.316,231.3962 1193.0035,232.4744 Q1193.691,233.5369 1195.0347,233.5369 Q1195.6597,233.5369 1196.2535,233.2712 Q1196.8472,232.99 1197.4722,232.4119 L1197.4722,235.1306 Z " fill="#000000"/><text fill="#000000" font-family="sans-serif" font-size="14" lengthAdjust="spacing" textLength="92.873" x="1215.0035" y="234.3367">MaksuPyynto</text><line style="stroke:#181818;stroke-width:0.5;" x1="1058.46" x2="1431.92" y1="245.49" y2="245.49"/><g data-visibility-modifier="PRIVATE_FIELD"><rect fill="none" height="6" style="stroke:#C82930;stroke-width:1;" width="6" x="1065.46" y="256.1384"/></g><text fill="#000000" font-family="sans-serif" font-size="14" lengthAdjust="spacing" textLength="151.1973" x="1077.46" y="262.4851">summaSentteina : int</text><g data-visibility-modifier="PRIVATE_FIELD"><rect fill="none" height="6" style="stroke:#C82930;stroke-width:1;" width="6" x="1065.46" y="272.4353"/></g><text fill="#000000" font-family="sans-serif" font-size="14" lengthAdjust="spacing" textLength="85.5654" x="1077.46" y="278.782">viite : String</text><line style="stroke:#181818;stroke-width:0.5;" x1="1058.46" x2="1431.92" y1="286.0838" y2="286.0838"/><g data-visibility-modifier="PUBLIC_METHOD"><ellipse cx="1068.46" cy="299.7322" fill="#84BE84" rx="3" ry="3" style="stroke:#038048;stroke-width:1;"/></g><text fill="#000000" font-family="sans-serif" font-size="14" lengthAdjust="spacing" textLength="349.46" x="1077.46" y="303.0789">MaksuPyynto(summaSentteina : int, viite : String)</text><g data-visibility-modifier="PUBLIC_METHOD"><ellipse cx="1068.46" cy="316.0291" fill="#84BE84" rx="3" ry="3" style="stroke:#038048;stroke-width:1;"/></g><text fill="#000000" font-family="sans-serif" font-size="14" lengthAdjust="spacing" textLength="162.1211" x="1077.46" y="319.3757">summaSentteina() : int</text><g data-visibility-modifier="PUBLIC_METHOD"><ellipse cx="1068.46" cy="332.3259" fill="#84BE84" rx="3" ry="3" style="stroke:#038048;stroke-width:1;"/></g><text fill="#000000" font-family="sans-serif" font-size="14" lengthAdjust="spacing" textLength="96.4893" x="1077.46" y="335.6726">viite() : String</text></g><!--class MaksuTulos--><g class="entity" data-qualified-name="MaksuTulos" data-source-line="34" id="ent0007"><rect fill="#F1F1F1" height="162.0781" rx="2.5" ry="2.5" style="stroke:#181818;stroke-width:0.5;" width="498.3838" x="7" y="197.19"/><ellipse cx="210.8887" cy="213.19" fill="#ADD1B2" rx="11" ry="11" style="stroke:#181818;stroke-width:1;"/><path d="M213.8574,218.8306 Q213.2793,219.1275 212.6387,219.2681 Q211.998,219.4244 211.2949,219.4244 Q208.7949,219.4244 207.4668,217.7837 Q206.1543,216.1275 206.1543,213.0025 Q206.1543,209.8775 207.4668,208.2212 Q208.7949,206.565 211.2949,206.565 Q211.998,206.565 212.6387,206.7212 Q213.2949,206.8775 213.8574,207.1744 L213.8574,209.8931 Q213.2324,209.315 212.6387,209.0494 Q212.0449,208.7681 211.4199,208.7681 Q210.0762,208.7681 209.3887,209.8462 Q208.7012,210.9087 208.7012,213.0025 Q208.7012,215.0962 209.3887,216.1744 Q210.0762,217.2369 211.4199,217.2369 Q212.0449,217.2369 212.6387,216.9712 Q213.2324,216.69 213.8574,216.1119 L213.8574,218.8306 Z " fill="#000000"/><text fill="#000000" font-family="sans-serif" font-size="14" lengthAdjust="spacing" textLength="82.1064" x="231.3887" y="218.0367">MaksuTulos</text><line style="stroke:#181818;stroke-width:0.5;" x1="8" x2="504.3838" y1="229.19" y2="229.19"/><g data-visibility-modifier="PRIVATE_FIELD"><rect fill="none" height="6" style="stroke:#C82930;stroke-width:1;" width="6" x="15" y="239.8384"/></g><text fill="#000000" font-family="sans-serif" font-size="14" lengthAdjust="spacing" textLength="125.3369" x="27" y="246.1851">onnistui : boolean</text><g data-visibility-modifier="PRIVATE_FIELD"><rect fill="none" height="6" style="stroke:#C82930;stroke-width:1;" width="6" x="15" y="256.1353"/></g><text fill="#000000" font-family="sans-serif" font-size="14" lengthAdjust="spacing" textLength="90.8154" x="27" y="262.482">virhe : String</text><g data-visibility-modifier="PRIVATE_FIELD"><rect fill="none" height="6" style="stroke:#C82930;stroke-width:1;" width="6" x="15" y="272.4322"/></g><text fill="#000000" font-family="sans-serif" font-size="14" lengthAdjust="spacing" textLength="145.4004" x="27" y="278.7789">tapahtumaId : String</text><line style="stroke:#181818;stroke-width:0.5;" x1="8" x2="504.3838" y1="286.0806" y2="286.0806"/><g data-visibility-modifier="PUBLIC_METHOD"><ellipse cx="18" cy="299.7291" fill="#84BE84" rx="3" ry="3" style="stroke:#038048;stroke-width:1;"/></g><text fill="#000000" font-family="sans-serif" font-size="14" lengthAdjust="spacing" textLength="472.3838" x="27" y="303.0757">MaksuTulos(onnistui : boolean, virhe : String, tapahtumaId : String)</text><g data-visibility-modifier="PUBLIC_METHOD"><ellipse cx="18" cy="316.0259" fill="#84BE84" rx="3" ry="3" style="stroke:#038048;stroke-width:1;"/></g><text fill="#000000" font-family="sans-serif" font-size="14" lengthAdjust="spacing" textLength="136.2607" x="27" y="319.3726">onnistui() : boolean</text><g data-visibility-modifier="PUBLIC_METHOD"><ellipse cx="18" cy="332.3228" fill="#84BE84" rx="3" ry="3" style="stroke:#038048;stroke-width:1;"/></g><text fill="#000000" font-family="sans-serif" font-size="14" lengthAdjust="spacing" textLength="101.7393" x="27" y="335.6695">virhe() : String</text><g data-visibility-modifier="PUBLIC_METHOD"><ellipse cx="18" cy="348.6197" fill="#84BE84" rx="3" ry="3" style="stroke:#038048;stroke-width:1;"/></g><text fill="#000000" font-family="sans-serif" font-size="14" lengthAdjust="spacing" textLength="156.3242" x="27" y="351.9664">tapahtumaId() : String</text></g><!--reverse link Maksutapa to Korttimaksu--><g class="link" data-entity-1="ent0002" data-entity-2="ent0003" data-link-type="extension" data-source-line="46" id="lnk8"><path codeLine="46" d="M960.3765,131.8064 C922.0265,162.9464 888.38,190.24 850.02,221.37" fill="none" id="Maksutapa-backto-Korttimaksu" style="stroke:#181818;stroke-width:1;"/><polygon fill="none" points="974.35,120.46,956.5944,127.1486,964.1586,136.4642,974.35,120.46" style="stroke:#181818;stroke-width:1;"/></g><!--reverse link Maksutapa to LahjakorttiMaksu--><g class="link" data-entity-1="ent0002" data-entity-2="ent0004" data-link-type="extension" data-source-line="47" id="lnk9"><path codeLine="47" d="M1239.3164,126.1785 C1310.5564,149.0785 1375.96,170.84 1450.19,197.19 C1478.45,207.22 1508.66,218.52 1537.05,229.39" fill="none" id="Maksutapa-backto-LahjakorttiMaksu" style="stroke:#181818;stroke-width:1;"/><polygon fill="none" points="1222.18,120.67,1237.4803,131.8906,1241.1526,120.4663,1222.18,120.67" style="stroke:#181818;stroke-width:1;"/></g><!--reverse link Hyvitettava to Korttimaksu--><g class="link" data-entity-1="ent0005" data-entity-2="ent0003" data-link-type="extension" data-source-line="49" id="lnk10"><path codeLine="49" d="M535.4511,106.4722 C582.8211,139.3922 643.2,181.35 700.65,221.26" fill="none" id="Hyvitettava-backto-Korttimaksu" style="stroke:#181818;stroke-width:1;stroke-dasharray:7,7;"/><polygon fill="none" points="520.67,96.2,532.0271,111.3993,538.8752,101.5452,520.67,96.2" style="stroke:#181818;stroke-width:1;"/></g><!--link Maksutapa to MaksuPyynto--><g class="link" data-entity-1="ent0002" data-entity-2="ent0006" data-link-type="dependency" data-source-line="51" id="lnk11"><path codeLine="51" d="M1096.27,120.46 C1123.27,148.89 1152.0878,179.2197 1180.1278,208.7397" fill="none" id="Maksutapa-to-MaksuPyynto" style="stroke:#181818;stroke-width:1;stroke-dasharray:7,7;"/><polygon fill="#181818" points="1184.26,213.09,1180.9619,203.8098,1180.8165,209.4648,1175.1615,209.3194,1184.26,213.09" style="stroke:#181818;stroke-width:1;"/><text fill="#000000" font-family="sans-serif" font-size="13" lengthAdjust="spacing" textLength="49.3149" x="1139.19" y="163.2569">k&#228;ytt&#228;&#228;</text></g><!--link Maksutapa to MaksuTulos--><g class="link" data-entity-1="ent0002" data-entity-2="ent0007" data-link-type="dependency" data-source-line="52" id="lnk12"><path codeLine="52" d="M852.52,111.2 C753.94,135.8 631.83,167.07 523.19,197.19 C517.48,198.78 517.4751,198.7627 511.6551,200.4027" fill="none" id="Maksutapa-to-MaksuTulos" style="stroke:#181818;stroke-width:1;stroke-dasharray:7,7;"/><polygon fill="#181818" points="505.88,202.03,515.6275,203.439,510.6926,200.6739,513.4577,195.7389,505.88,202.03" style="stroke:#181818;stroke-width:1;"/><text fill="#000000" font-family="sans-serif" font-size="13" lengthAdjust="spacing" textLength="62.1626" x="696.19" y="163.2569">palauttaa</text></g><!--link Hyvitettava to MaksuTulos--><g class="link" data-entity-1="ent0005" data-entity-2="ent0007" data-link-type="dependency" data-source-line="54" id="lnk13"><path codeLine="54" d="M442.88,95.97 C415.51,122.54 379.3651,157.6408 343.1051,192.8408" fill="none" id="Hyvitettava-to-MaksuTulos" style="stroke:#181818;stroke-width:1;stroke-dasharray:7,7;"/><polygon fill="#181818" points="338.8,197.02,348.0438,193.6212,342.3876,193.5373,342.4715,187.8811,338.8,197.02" style="stroke:#181818;stroke-width:1;"/><text fill="#000000" font-family="sans-serif" font-size="13" lengthAdjust="spacing" textLength="62.1626" x="387.19" y="163.2569">palauttaa</text></g><?plantuml-src hLH1JiCm4Bpd5POuD15D7b0LBbn0K8Ge7zYsfZ59xCXUHueel-bF-Z4Sfsbj4oHKuPlNCxEpwxKdvAPVv4v8IZQY0iQ7M0GhXHBMIDObA4KMK2YDK0FvZ0X92MSL8pEoHCduraIkoPRYimd6YH-k317Ykcqv2dDYTLxiBXcsRxeKoe2lYD92CWGR_GldAufwUuz28h8kbpuQB01f0nAqMbAEI1a7msKShIi77oSNfUvKyhOnbBXhIuwwWeVDgVQf4Qmg27B_Ply9yWyehAU5KuE2SYF6x8Vu6Cf2BqVGoQLjDLmgts5DoNrN94M4fh_xVopRSJ1KFCAs1mqp9lp9SjZn66yQa1BByf5sMeUkMhWxlxvHQ_xeKt3E5Ehk2Qo4A2dmeqkPUovJCjQbitsh6VzKcmPIqr6TlgA1RPsVtLpt4k5xT7I2KgF9wKDufIKW4rpbh5QdB-7y1yntQUg-eV0edCyeSgTeliioZ-tGi-pM6uiPAGxx5l6mF-p7OFsb65WD9MYZ3twk0EZWlW40?></g></svg>